<svg fill="none" viewBox="0 0 1496 1496" xmlns="http://www.w3.org/2000/svg">
  <title>The CGIAR Climate Action Program</title>
  <path d="M0 0h1496v1496H0z" fill="#0050b2" />
  <path
    d="M738.3 201.4a18.5 18.5 0 0 1 22.6 1.7c5.4 4.8 7.4 12.7 7.3 20v90.3l.1 124.9q5 9.9 10.6 19.3l5 8.8q8 13.6 15.2 27.6l6.5 12.6c8.7 17 17.5 35 18.2 54.9A83 83 0 0 1 806 612c-6 8.7-13.3 16.2-20.5 23.8l-8.4 9q-5.4 6-11 11.7l-17.3 18.8a886 886 0 0 1-48.1-51.2 124 124 0 0 1-23-37.2 69 69 0 0 1-.2-41.9c6.7-23 17.7-44.2 28.6-65.2l1-1.7q5.6-10.9 11.4-21.6 5-9 9.8-18.3.4-46.5 0-93v-86.5l-.2-36.8c0-8 3.5-16.4 10.1-20.5"
    fill="#5da6ff"
  />
  <path
    d="M887.3 337.2c9.4-4.8 22-1.9 28.1 7.4 3.1 4.4 3.1 10.2 3.1 15.5v.5l.1 33q.4 17 .1 34 .7 16.1.5 32.2v15.8q.3 14 .2 28V518q.7 94-.2 188l-.6 13.5q-.6 9-.5 18.2v4.5c.4 11.3.7 23-4.2 33.3-7.2 15.7-21.4 25.7-35 34.4a462 462 0 0 1-75.4 37l-6.2 2.4h-.1a250 250 0 0 1-28.3 9.7l-.5-32.5v-.2l-.6-40.4q-.1-8-.5-16c-.5-12-1-24.2 1-36.3 2.6-17.2 12-32 22.6-44.8a634 634 0 0 1 35.2-37.5q16.7-16.4 32.2-33.9a71 71 0 0 0 15.6-26.5c3.7-12.4 3.9-25.4 4-38.3l.2-7.6V353.5a18 18 0 0 1 9.2-16.3m-276.9 2a22 22 0 0 0-23-2A20 20 0 0 0 576 356l-.2 34.2-.1 38.6q-.4 12.9-.2 25.8.1 15.3-.4 30.7l-.1 55a6106 6106 0 0 0-.1 87c0 31.8-.1 63.6 1 95.4 1 6.5.7 13.2.5 19.8-.3 9.5-.6 19 2.3 28.1 4.3 14 15.3 24.4 26.6 32.4 16 11.3 33.3 20.5 50.9 28.9 22.6 10.5 45.8 20 69.6 27.4q.3-50.7 1.7-101.6a99 99 0 0 0-4.3-36.3c-5.1-14.7-14.6-27-24.5-38.4a934 934 0 0 0-31.7-33.2l-20.6-21-3.5-4c-7.6-8.3-15.4-16.8-20-27.5a101 101 0 0 1-6.3-35.8q-.4-27.9-.2-55.8V353.5c0-5.4-2-10.9-6-14.3m694.3 401.2a207 207 0 0 0 40.4-30.8A361 361 0 0 1 1288 829a309 309 0 0 1-93 82.6c-27 15.8-56 27.6-85.7 36.3-20.6 6-41.6 10.4-62.5 14.9l-15.7 3.3-31.4 6.4c-29.4 6-58.9 12-88 19-39.8 9.8-79.8 21.3-116 41.9-7 3.8-13.5 8.5-20 13.1l-7.4 5.2a380 380 0 0 0 .6-55.2l-.4-13.2v-4c.3-18.9.5-38.2 6.8-56a97 97 0 0 1 32.8-44.6 242 242 0 0 1 63.7-34.1c43.3-16 89-23 134.2-29.6l28.4-3.8c28.2-3.8 56.5-7.6 84.5-12.8A908 908 0 0 0 1222 775a383 383 0 0 0 82.7-34.6M211 752.3a227 227 0 0 1-62.3-42.2 365 365 0 0 0 28.5 73.7 313 313 0 0 0 79.2 98.6 356 356 0 0 0 122.4 64c19.2 6 38.8 10.2 58.3 14.4l9.5 2 47.2 9.8c33.4 6.7 66.7 13.5 99.8 21.9a482 482 0 0 1 86.3 29.6q24 11.4 45.4 27.8c-2-17.2-1.4-34.6-.9-52 .6-20.5 1.3-41-2.1-61.2a92 92 0 0 0-20.4-44c-12.2-14.5-28-25-44.1-33.8a332 332 0 0 0-74.8-28.2 1096 1096 0 0 0-123.8-21.4h-.1l-24.9-3.4c-28.2-3.7-56.2-8.7-84.2-14-47.3-9.3-94.7-20.8-139-41.6"
    fill="#5da6ff"
  />
  <path
    d="M196 871.4c15 17 31 33.2 49.2 46.5 35.5 26.5 77.4 40.1 118.5 53 47.7 15.2 96.4 25.6 145.1 36q38.2 8.1 76.1 17c24.5 6.2 49 12.6 72.2 23.2a108 108 0 0 1 44 34.3 108 108 0 0 1 18.4 53.5q1.3 16.3.8 32.8a276 276 0 0 0 1 34.1q.3 27.9-.4 55.9l-.4 39.6h-60.3l-70.4.1v-42.6l-.1-33a64 64 0 0 0-9.8-35.7c-9-12.5-23-19.2-36.7-24.2a420 420 0 0 0-47.8-12.5q-15-3.2-29.6-7a979 979 0 0 1-75-25.5A295 295 0 0 1 242 1003.5a282 282 0 0 1-46-132.1m1099 .2a297 297 0 0 1-61.2 54.8c-21.4 14-45 24-68.8 32.4q-32.7 11.2-66 20.8a1861 1861 0 0 1-115.8 27.3c-27.2 5.9-54.3 11.7-81.4 18.3-24.6 6.4-49.4 13-72.5 24.3a104 104 0 0 0-40.2 33.3 115 115 0 0 0-18.2 61.5q-.7 11.4-.1 22.8.5 11 0 21.8c-1 11.7-1 23.4-1 35.2q.2 8.9 0 17.8l.4 23.5q0 16.1.6 32.3h130.5q.4-22.7.2-45.4v-32.9a58 58 0 0 1 10.7-34.5c9-11.6 22.4-17.9 35.5-22.7a420 420 0 0 1 47.5-12.5c14-3 28-6.2 41.8-10.5a1298 1298 0 0 0 72.7-25.6h.2a292 292 0 0 0 141.4-113.3c24.6-38 39.6-82.8 43.7-128.7"
    fill="#5da6ff"
  />
</svg>
