<svg xmlns="http://www.w3.org/2000/svg" width="35" height="34"><svg xmlns="http://www.w3.org/2000/svg" width="35" height="34" fill="none" viewBox="0 0 35 34"><path fill="#033529" d="M.975.324h33.3v33.3H.975z"/><path fill="#fff" d="M28.725 20.976c-.777.583-1.72.888-2.636 1.166-1.055.333-2.137.583-3.22.805-.554.11-1.137.25-1.692.388-.444.111-.86.222-1.304.389-.389.138-.75.333-1.027.61-.36.36-.721.916-.721 1.693v3.33h2.941V27.72c0-.278.056-.583.222-.805.194-.278.5-.416.805-.527.36-.111.694-.195 1.054-.278l.666-.166c.555-.167 1.11-.361 1.665-.555 1.304-.444 2.525-1.332 3.302-2.526a6.14 6.14 0 0 0 1.027-2.941c-.333.388-.646.738-1.035 1.015zM15.266 14.116c-.166-.194-.333-.388-.444-.61-.11-.25-.138-.528-.138-.805V8.122a.486.486 0 0 0-.472-.472.47.47 0 0 0-.472.472v8.603s-.083.804.666 1.36c.36.25.75.443 1.138.638.5.222 1.054.444 1.582.61v-2.248c0-.277 0-.555-.084-.804-.11-.333-.333-.61-.555-.86s-.471-.5-.693-.75z"/><path fill="#fff" d="M18.68 14.284c.194-.25.416-.5.499-.833.11-.305.083-.638 0-.943-.139-.5-.389-.971-.638-1.443a10 10 0 0 0-.25-.527c-.084-.14-.111-.25-.195-.417V5.237a.47.47 0 0 0-.471-.471.45.45 0 0 0-.472.471v4.857a5 5 0 0 0-.194.416c-.084.166-.167.305-.25.472-.25.5-.5.97-.638 1.498a1.8 1.8 0 0 0 0 .944c.11.305.305.582.5.832l1.06 1.138zM24.507 21.748c.444-.084.86-.195 1.304-.333.971-.306 1.915-.75 2.72-1.416a6.9 6.9 0 0 0 1.776-2.192c.277-.527.471-1.082.638-1.637-.416.388-.78.685-1.28.946l-.108.053c-.97.472-2.053.721-3.108.916-.61.11-1.248.222-1.887.305-.194.03-.36.055-.555.083-.915.111-1.859.25-2.747.472a6 6 0 0 0-1.665.638c-.36.194-.721.416-.971.75-.222.277-.389.61-.444.97-.083.445-.047.883-.056 1.36v1.277c.278-.278.583-.555.972-.75.61-.305 1.276-.499 1.914-.665.722-.195 2.22-.5 2.22-.5zM12.02 22.025s1.498.305 2.22.5c.638.166 1.304.36 1.914.666.389.194.694.471.972.749v-1.277c-.009-.477.027-.915-.056-1.36a2.1 2.1 0 0 0-.444-.97c-.25-.334-.61-.556-.971-.75a6 6 0 0 0-1.665-.638c-.888-.222-1.832-.36-2.747-.472-.195-.028-.361-.053-.555-.083a38 38 0 0 1-1.887-.305c-1.055-.195-2.137-.444-3.108-.916l-.109-.053c-.499-.26-.863-.558-1.279-.946.167.555.36 1.11.638 1.637A6.9 6.9 0 0 0 6.72 20c.805.666 1.749 1.11 2.72 1.416.444.138.86.25 1.304.333z"/><path fill="#fff" d="M19.457 14.671c-.223.25-.472.5-.694.75s-.444.527-.555.86c-.083.25-.083.527-.083.804v2.248a16 16 0 0 0 1.581-.61c.389-.195.777-.389 1.138-.639.75-.555.666-1.36.666-1.36V8.123a.47.47 0 0 0-.472-.472.486.486 0 0 0-.471.472v4.579c0 .277-.028.555-.14.805-.11.222-.277.416-.443.61zM6.477 20.938c-.388-.278-.702-.628-1.035-1.016a6.14 6.14 0 0 0 1.027 2.941c.777 1.194 1.998 2.082 3.302 2.526.555.194 1.11.388 1.665.555l.666.166c.361.083.694.167 1.055.278.305.11.61.25.805.527.166.222.222.527.222.805v1.637h2.941v-3.33c0-.777-.36-1.332-.721-1.693-.278-.277-.639-.472-1.027-.61-.444-.167-.86-.278-1.304-.389a37 37 0 0 0-1.693-.388c-1.082-.222-2.165-.472-3.22-.805-.915-.278-1.858-.583-2.635-1.166z"/></svg><style>@media (prefers-color-scheme:light){:root{filter:none}}@media (prefers-color-scheme:dark){:root{filter:none}}</style></svg>